<?xml version="1.0" encoding="utf-8"?>
<!-- Generator: Adobe Illustrator 24.2.0, SVG Export Plug-In . SVG Version: 6.00 Build 0)  -->
<svg version="1.0" id="Layer_1" xmlns="http://www.w3.org/2000/svg" xmlns:xlink="http://www.w3.org/1999/xlink" x="0px" y="0px"
	 viewBox="0 0 800 300" enable-background="new 0 0 800 300" xml:space="preserve">
<rect fill="none" width="800" height="300"/>
<g>
	<path fill="#1A1A1A" d="M444.3,149.8c-0.1-4.8,3.6-8.9,8.4-9.1h0.4c3.6-0.2,6.9,2.1,7.9,5.7l-2.8,0.9c-0.5-2.4-2.7-4-5.1-3.8
		c-3.2,0-5.8,2.6-5.8,5.8c0,0.2,0,0.4,0,0.5c-0.3,3.1,2,5.9,5.1,6.2c0.2,0,0.4,0,0.7,0c2.4,0.1,4.6-1.5,5.2-3.8l2.7,0.9
		c-1,3.6-4.3,6-7.9,5.8c-4.8,0.1-8.7-3.7-8.8-8.5c0,0,0,0,0,0C444.3,150.2,444.3,150,444.3,149.8z"/>
	<path fill="#1A1A1A" d="M466.4,158.5h-2.8v-17.8h2.9v7c0.8-1,2.1-1.5,3.4-1.5c2.9,0,4.4,2.1,4.4,4.8v7.6h-2.8v-7.1
		c0.2-1.3-0.7-2.4-1.9-2.6c0,0,0,0,0,0c-0.2,0-0.4,0-0.5,0c-1.4,0-2.5,1.1-2.5,2.5v0.2L466.4,158.5z"/>
	<path fill="#1A1A1A" d="M480.6,151.6l3.1-0.5c0.7-0.1,0.9-0.4,0.9-0.9c0-1-0.7-1.8-2.3-1.8c-1.3-0.1-2.4,0.8-2.5,2c0,0,0,0,0,0
		c0,0,0,0,0,0.1l-2.6-0.6c0.4-2.4,2.6-4.1,5-3.9c3.7,0,5.1,2.1,5.1,4.5v5.9c0,0.6,0,1.3,0.1,1.9h-2.7c-0.1-0.5-0.1-1-0.1-1.5
		c-0.8,1.2-2.2,2-3.7,1.9c-2.1,0.2-3.9-1.4-4.1-3.4c0-0.1,0-0.1,0-0.2C476.9,153.3,478.6,151.6,480.6,151.6z M484.5,153.5V153
		l-3.1,0.5c-0.9,0-1.6,0.7-1.6,1.6c0,0.9,0.7,1.6,1.6,1.6c0,0,0,0,0,0h0.1c1.5,0.1,2.8-1,2.9-2.4C484.5,154,484.5,153.8,484.5,153.5
		z"/>
	<path fill="#1A1A1A" d="M492.2,140.4c1,0,1.9,0.8,1.9,1.8c0,0,0,0,0,0l0,0c0,1-0.8,1.9-1.9,1.9c-1,0-1.9-0.8-1.9-1.9
		C490.4,141.2,491.2,140.4,492.2,140.4L492.2,140.4z M490.8,158.5v-12h2.8v12L490.8,158.5z"/>
	<path fill="#1A1A1A" d="M500.2,158.5h-2.8v-12h2.8v1.6c0.7-1.2,2.1-2,3.5-2c2.9,0,4.3,2.1,4.3,4.8v7.6h-2.9v-7.1
		c0-1.5-0.7-2.7-2.5-2.7c-1.4,0-2.5,1.1-2.5,2.5c0,0.1,0,0.2,0,0.3L500.2,158.5z"/>
	<path fill="#1A1A1A" d="M511.5,158.5v-17.8h2.8v17.8H511.5z"/>
	<path fill="#1A1A1A" d="M519.4,140.4c1,0,1.9,0.8,1.9,1.9c0,1-0.8,1.9-1.9,1.9c-1,0-1.9-0.8-1.9-1.9c0,0,0,0,0,0
		C517.6,141.2,518.4,140.4,519.4,140.4z M518,158.5v-12h2.9v12L518,158.5z"/>
	<path fill="#1A1A1A" d="M527.4,158.5h-2.8v-12h2.8v1.6c0.7-1.2,2.1-2,3.5-2c2.9,0,4.4,2.1,4.4,4.8v7.6h-2.9v-7.1
		c0.2-1.3-0.7-2.5-1.9-2.6c0,0,0,0,0,0c-0.2,0-0.3,0-0.5,0c-1.4,0-2.5,1.1-2.5,2.5c0,0.1,0,0.2,0,0.3L527.4,158.5z"/>
	<path fill="#1A1A1A" d="M545,151.6l5,6.9h-3.5l-3.6-4.9l-1.5,1.5v3.4h-2.8v-17.8h2.8v10.7l4.6-4.8h3.8L545,151.6z"/>
	<path fill="#1A1A1A" d="M410.5,135.8l12.4,7.1v14.2l-12.3,7.1l-12.4-7.1V143L410.5,135.8 M410.5,125.3L406,128l-12.3,7.2l-4.5,2.6
		v24.7l4.5,2.6l12.4,7.1l4.5,2.6l4.5-2.6l12.3-7.2l4.5-2.6v-24.7l-4.5-2.6L415,128L410.5,125.3L410.5,125.3z"/>
	<g>
		<path fill="#1A1A1A" d="M252.4,150.7v7.2H250v-17.6h6.4c3.2,0,5.4,2.3,5.4,5.2c0,3-2.2,5.2-5.4,5.2H252.4z M255.9,148.5
			c2.1,0,3.4-1.2,3.4-3c0-1.9-1.3-3-3.4-3h-3.5v6H255.9z"/>
		<path fill="#1A1A1A" d="M274.8,151.9c0,3.6-2.5,6.3-6.1,6.3s-6.1-2.7-6.1-6.3c0-3.6,2.5-6.3,6.1-6.3S274.8,148.3,274.8,151.9z
			 M272.4,151.9c0-2.8-1.7-4.2-3.7-4.2s-3.7,1.5-3.7,4.2c0,2.8,1.7,4.3,3.7,4.3S272.4,154.7,272.4,151.9z"/>
		<path fill="#1A1A1A" d="M286.6,146l3.1,9l2.6-9h2.5l-3.9,11.9h-2.4l-3.2-9.1l-3.1,9.1h-2.5l-3.9-11.9h2.6l2.7,9l3.1-9H286.6z"/>
		<path fill="#1A1A1A" d="M307.3,154.5c-0.7,2.1-2.6,3.8-5.4,3.8c-3.2,0-6-2.3-6-6.4c0-3.7,2.7-6.3,5.7-6.3c3.7,0,5.7,2.5,5.7,6.2
			c0,0.3,0,0.6,0,0.7h-9c0,2.1,1.6,3.6,3.6,3.6c1.9,0,2.9-1.1,3.3-2.4L307.3,154.5z M304.9,150.7c0-1.7-1.2-3-3.3-3
			c-2,0-3.1,1.5-3.2,3H304.9z"/>
		<path fill="#1A1A1A" d="M316.9,148.3c-0.3,0-0.7-0.1-1-0.1c-2,0-3.3,1-3.3,3.7v6h-2.3V146h2.3v2.1c0.9-1.8,2.4-2.3,3.6-2.3
			c0.3,0,0.6,0,0.8,0.1V148.3z"/>
		<path fill="#1A1A1A" d="M329.7,154.5c-0.7,2.1-2.6,3.8-5.4,3.8c-3.2,0-6-2.3-6-6.4c0-3.7,2.7-6.3,5.7-6.3c3.7,0,5.7,2.5,5.7,6.2
			c0,0.3,0,0.6,0,0.7h-9c0,2.1,1.6,3.6,3.6,3.6c1.9,0,2.9-1.1,3.3-2.4L329.7,154.5z M327.3,150.7c0-1.7-1.2-3-3.3-3
			c-2,0-3.1,1.5-3.2,3H327.3z"/>
		<path fill="#1A1A1A" d="M341.1,156.1c-0.6,1.1-1.8,2.1-3.7,2.1c-3.5,0-5.7-2.8-5.7-6.3c0-3.4,2.3-6.2,5.7-6.2c2.1,0,3.2,1,3.6,2
			v-7.7h2.3v15.7c0,1.1,0.1,2,0.1,2.2h-2.3c0-0.3-0.1-0.9-0.1-1.6V156.1z M337.6,156.1c2.1,0,3.4-1.9,3.4-4.3c0-2.5-1.3-4.1-3.4-4.1
			c-2.1,0-3.5,1.7-3.5,4.2C334.1,154.3,335.4,156.1,337.6,156.1z"/>
		<path fill="#1A1A1A" d="M353.5,157.9v-17.9h2.3v7.7c0.6-1.1,2-2,3.9-2c3.6,0,5.5,2.8,5.5,6.2c0,3.5-2,6.3-5.6,6.3
			c-1.8,0-3.1-0.8-3.9-2.1v1.7H353.5z M359.3,147.7c-2.1,0-3.5,1.6-3.5,4.2c0,2.6,1.5,4.3,3.5,4.3c2.1,0,3.5-1.7,3.5-4.3
			C362.8,149.3,361.5,147.7,359.3,147.7z"/>
		<path fill="#1A1A1A" d="M368.1,162.9l3-6.3L366,146h2.7l3.7,8.2l3.6-8.2h2.5l-7.8,16.9H368.1z"/>
	</g>
</g>
</svg>
