<?xml version="1.0" encoding="utf-8"?>
<!-- Generator: Adobe Illustrator 24.2.0, SVG Export Plug-In . SVG Version: 6.00 Build 0)  -->
<svg version="1.0" id="Layer_1" xmlns="http://www.w3.org/2000/svg" xmlns:xlink="http://www.w3.org/1999/xlink" x="0px" y="0px"
	 viewBox="0 0 800 300" enable-background="new 0 0 800 300" xml:space="preserve">
<g id="katman_1">
	<rect fill="none" width="800" height="300"/>
</g>
<path fill="#1A1A1A" d="M377.3,161.6h-4.9l-9.5-15.5v15.5H358V138h4.9l9.5,15.5V138h4.8v23.6H377.3z M404,151.9h-9.3v9.6h-4.9V138
	h15.3v3.9h-10.5v6.1h9.3v3.9H404z M434.3,141.9h-7.2v19.6h-4.9v-19.6h-7.1V138h19.2V141.9z M452.8,152.1l-2.5,2.7v6.7h-4.9V138h4.9
	v10.7l2.1-2.9l6-7.8h6l-8.4,10.5l8.6,13.1h-5.8L452.8,152.1z M488.9,151.3h-9.3v6.3h10.9v3.9h-15.8V138h15.8v3.9h-10.9v5.6h9.3
	V151.3z M509.8,148.6l4.9-10.6h5.3l-7.7,15v8.5h-4.9V153l-7.7-15h5.3L509.8,148.6z"/>
<path fill="#1A1A1A" d="M307.6,122.9L307.6,122.9c15.3,0,27.6,12.4,27.6,27.6l0,0c0,15.3-12.4,27.6-27.6,27.6l0,0
	c-15.3,0-27.6-12.4-27.6-27.6l0,0C280,135.2,292.4,122.9,307.6,122.9z"/>
<ellipse fill="#FFFFFF" cx="307.6" cy="144.7" rx="11.1" ry="11.1"/>
<circle fill="#1A1A1A" cx="307.7" cy="144.6" r="4.5"/>
<rect x="303.6" y="154.9" fill="#FFFFFF" width="8" height="12.4"/>
</svg>
