<?xml version="1.0" encoding="utf-8"?>
<!-- Generator: Adobe Illustrator 24.2.0, SVG Export Plug-In . SVG Version: 6.00 Build 0)  -->
<svg version="1.0" id="katman_1" xmlns="http://www.w3.org/2000/svg" xmlns:xlink="http://www.w3.org/1999/xlink" x="0px" y="0px"
	 viewBox="0 0 800 300" enable-background="new 0 0 800 300" xml:space="preserve">
<path fill="#1A1A1A" d="M353.7,172.8c-1.3,0-2.6-0.2-3.8-0.8c-1.2-0.5-2.4-1.2-3.4-2.1l1.9-2c0.7,0.7,1.6,1.2,2.4,1.7
	c0.9,0.4,1.8,0.6,2.8,0.6c0.8,0,1.5-0.2,2.2-0.6c0.5-0.3,0.8-0.9,0.8-1.5l0,0c0-0.3,0-0.5-0.2-0.8c-0.2-0.2-0.4-0.6-0.6-0.8
	c-0.4-0.2-0.8-0.4-1.1-0.6c-0.6-0.2-1.3-0.4-1.9-0.6c-0.8-0.2-1.7-0.4-2.4-0.8c-0.6-0.2-1.2-0.5-1.7-0.9c-0.4-0.4-0.8-0.8-1.1-1.3
	c-0.3-0.6-0.4-1.3-0.4-2l0,0c0-0.7,0.2-1.4,0.4-2c0.3-0.6,0.6-1.1,1.1-1.5c0.6-0.4,1.2-0.7,1.9-0.9c0.7-0.2,1.5-0.3,2.2-0.4
	c1.2,0,2.3,0.2,3.4,0.6c1,0.4,1.9,0.9,2.8,1.5l-1.5,2.2c-0.7-0.5-1.5-0.9-2.2-1.3c-0.7-0.3-1.5-0.4-2.2-0.4c-0.7,0-1.4,0.2-2,0.6
	c-0.4,0.4-0.7,0.9-0.8,1.5l0,0c0,0.3,0,0.7,0.2,0.9c0.2,0.2,0.4,0.6,0.6,0.8c0.4,0.2,0.8,0.4,1.3,0.6c0.7,0.3,1.3,0.4,2,0.6
	c0.8,0.2,1.7,0.4,2.4,0.8c0.6,0.2,1.2,0.6,1.7,0.9c0.9,0.8,1.4,2,1.3,3.2l0,0c0,0.7-0.1,1.4-0.4,2c-0.4,0.6-0.8,1.2-1.3,1.7
	c-0.6,0.4-1.2,0.7-1.9,0.9C355.4,172.6,354.5,172.8,353.7,172.8z M363.1,155.8h3.2l5,7.9l5.3-7.9h3.2v16.8h-3v-12.2l-5.3,7.8h-0.2
	l-5.2-7.8v12.2h-3L363.1,155.8z M389.8,155.6h2.8l7.3,16.8h-3.2l-1.7-4.1h-7.8l-1.7,4.1h-3L389.8,155.6z M394.1,165.9l-3-6.7
	l-2.8,6.7H394.1z M402.9,155.8h7.5c0.9,0,1.9,0.2,2.8,0.4c0.8,0.2,1.5,0.7,2,1.3c0.5,0.5,0.8,1.1,1.1,1.7c0.2,0.7,0.3,1.4,0.4,2l0,0
	c0,0.6-0.2,1.3-0.4,1.9c-0.2,0.6-0.6,0.9-0.8,1.5c-0.4,0.4-0.8,0.8-1.3,1.1c-0.5,0.3-1.1,0.6-1.7,0.8l4.5,6.4h-3.6l-4.1-5.8h-3.7
	v5.8h-3L402.9,155.8z M410.2,164c0.9,0.1,1.8-0.2,2.5-0.8c0.6-0.5,0.9-1.2,0.9-2l0,0c0-0.8-0.4-1.5-0.9-2c-0.8-0.5-1.7-0.8-2.6-0.8
	h-4.3v5.5L410.2,164z M424.4,158.4H419v-2.6h13.7v2.6h-5.4v14.2h-3L424.4,158.4z M450.8,172.8c-1.2,0-2.3-0.2-3.4-0.8
	c-2-0.8-3.7-2.5-4.5-4.5c-0.4-1.1-0.7-2.2-0.6-3.4l0,0c0-1.1,0.2-2.3,0.6-3.4c0.8-2.1,2.4-3.8,4.5-4.7c1.1-0.4,2.4-0.7,3.6-0.7
	c0.7,0,1.4,0,2,0.2c0.6,0.2,1.1,0.4,1.7,0.6c0.5,0.3,1,0.5,1.5,0.8c0.4,0.4,0.9,0.8,1.3,1.1l-1.9,2.1c-0.6-0.6-1.3-1.1-2.1-1.5
	c-0.8-0.4-1.7-0.6-2.6-0.6c-0.8,0-1.5,0.2-2.2,0.4c-0.7,0.3-1.3,0.8-1.9,1.3c-0.5,0.5-0.9,1.1-1.1,1.9c-0.2,0.7-0.3,1.5-0.4,2.2l0,0
	c0,0.8,0.1,1.5,0.4,2.2c0.2,0.7,0.6,1.4,1.1,1.9c0.5,0.5,1.2,1,1.9,1.3c0.7,0.4,1.5,0.5,2.2,0.4c0.9,0,1.8-0.2,2.6-0.6
	c0.8-0.4,1.6-1,2.2-1.7l1.9,1.9l-1.3,1.4c-0.5,0.4-1,0.7-1.5,0.9c-0.6,0.3-1.2,0.5-1.9,0.6C452.4,172.6,451.6,172.9,450.8,172.8
	L450.8,172.8z M460.7,155.8h2.8v6.9h8.1v-6.9h3v16.8h-3v-7.1h-8.1v7.1h-2.8V155.8z M484.8,155.6h2.8l7.3,16.8h-3.2l-1.7-4.1h-7.9
	l-1.7,4.1h-3L484.8,155.6z M489,165.9l-2.8-6.7l-2.8,6.7H489z M498,155.8h3v16.8h-3V155.8z M505.5,155.8h2.5l9,11.6v-11.6h3v16.8
	h-2.4l-9.1-12v12h-3L505.5,155.8z M314.1,171.5v7.3l-6.4,3.8l-6.2-3.8v-7.3l6.2,3.7L314.1,171.5z M280,146.3l6.2,3.7v12.5l10.6,6.4
	v7.3l-16.8-9.9V146.3z M335.4,146.3v20l-17,9.9v-7.3l10.6-6.4V150L335.4,146.3z M318.3,136.3l6.4,3.7l0,0v7.3l-10.6,6.4v12.7
	l-6.2,3.7l-6.2-3.7v-12.7l-11-6.4v-7.3l6.4-3.7l10.6,6.4L318.3,136.3z M290.7,152.6l6.2,3.7v7.3l-6.2-3.7V152.6z M324.7,152.6v7.3
	l-6.2,3.7v-7.3L324.7,152.6z M286.2,130l6.4,3.7l-6.4,3.7v7.3L280,141v-7.3L286.2,130z M329.2,130l6.4,3.7v7.3l-6.4,3.8v-7.3
	l-6.2-3.7L329.2,130z M307.7,130l6.4,3.7l-6.4,3.7l-6.2-3.7L307.7,130z M307.7,117.5l17,9.9l-6.2,3.7l-10.6-6.4l-10.8,6.3l-6.2-3.7
	L307.7,117.5z M347.1,125.2h11.1c2.8,0,4.8,0.7,6.3,2.1c1.1,1.1,1.7,2.6,1.6,4.1v0.1c0,0.6-0.1,1.2-0.3,1.8c-0.2,0.5-0.4,1-0.7,1.4
	c-0.3,0.4-0.6,0.8-1,1.1c-0.4,0.3-0.8,0.6-1.2,0.8c1.2,0.4,2.4,1.2,3.3,2.1c0.8,1.1,1.3,2.4,1.2,3.8v0.1c0,1-0.2,2-0.6,2.9
	c-0.4,0.8-1,1.5-1.8,2.1c-0.9,0.6-1.8,1-2.8,1.2c-1.2,0.3-2.4,0.4-3.7,0.4h-11.4L347.1,125.2z M357.1,134.9c1,0,1.9-0.2,2.8-0.6
	c0.7-0.4,1.1-1.1,1-1.9v-0.1c0-0.7-0.3-1.4-0.9-1.8c-0.8-0.5-1.7-0.7-2.6-0.6h-5.2v5.1H357.1z M358.5,144.6c1,0.1,1.9-0.2,2.7-0.6
	c0.7-0.4,1.1-1.2,1-2v-0.1c0-0.7-0.3-1.5-0.9-1.9c-0.9-0.5-2-0.8-3-0.7h-6.1v5.3L358.5,144.6z M374.1,125.2h5.3v24h-5.3V125.2z
	 M387.4,125.2h4.9l11.2,14.8v-14.8h5.2v24h-4.5l-11.6-15.2v15.2h-5.2V125.2z M424.6,125h4.9l10.3,24.1h-5.5l-2.2-5.4h-10.1l-2.2,5.4
	h-5.4L424.6,125z M430.2,139.1l-3.2-7.8l-3.2,7.8L430.2,139.1z M445.5,125.2h4.9l11.2,14.8v-14.8h5.2v24h-4.5l-11.6-15.2v15.2h-5.2
	V125.2z M485.7,149.6c-1.7,0-3.4-0.3-4.9-1c-3-1.2-5.3-3.6-6.5-6.5c-0.6-1.5-0.9-3.2-0.9-4.8v-0.1c0-1.7,0.3-3.3,0.9-4.8
	c0.6-1.5,1.5-2.8,2.6-3.9c1.1-1.1,2.5-2.1,3.9-2.7c1.6-0.7,3.3-1,5.1-1c1,0,2.1,0.1,3.1,0.3c0.9,0.2,1.7,0.4,2.5,0.8
	c0.7,0.3,1.4,0.7,2.1,1.2c0.6,0.5,1.2,1,1.8,1.5l-3.4,3.9c-0.9-0.8-1.8-1.5-2.9-2c-1-0.5-2.1-0.7-3.3-0.7c-1,0-1.9,0.2-2.8,0.6
	c-0.8,0.4-1.6,0.9-2.2,1.6c-0.6,0.7-1.1,1.5-1.4,2.4c-0.3,0.9-0.5,1.9-0.5,2.9v0.1c0,1,0.2,2,0.5,2.9c0.3,0.9,0.8,1.7,1.4,2.4
	c1.3,1.4,3.1,2.2,5,2.2c1.2,0,2.4-0.2,3.5-0.8c1-0.6,2-1.3,2.8-2.1l3.4,3.4c-0.6,0.6-1.2,1.2-1.9,1.8c-1.4,1.1-3,1.9-4.8,2.2
	C487.8,149.4,486.8,149.5,485.7,149.6L485.7,149.6z M501.7,125.2h18v4.7H507v4.9h11.3v4.7H507v5h13v4.7h-18.2L501.7,125.2z"/>
<rect fill="none" width="800" height="300"/>
</svg>
