<?xml version="1.0" encoding="utf-8"?>
<!-- Generator: Adobe Illustrator 24.2.0, SVG Export Plug-In . SVG Version: 6.00 Build 0)  -->
<svg version="1.0" xmlns="http://www.w3.org/2000/svg" xmlns:xlink="http://www.w3.org/1999/xlink" x="0px" y="0px"
	 viewBox="0 0 800 300" enable-background="new 0 0 800 300" xml:space="preserve">
<g id="katman_1">
	<rect fill="none" width="800" height="300"/>
</g>
<g id="Layer_2" display="none">
	<path display="inline" fill="#1A1A1A" d="M377.3,161.6h-4.9l-9.5-15.5v15.5h-4.9V138h4.9l9.5,15.5V138h4.8V161.6z M404,151.9h-9.3
		v9.6h-4.9V138h15.3v3.9h-10.5v6.1h9.3V151.9z M434.3,141.9h-7.2v19.6h-4.9v-19.6h-7.1V138h19.2V141.9z M452.8,152.1l-2.5,2.7v6.7
		h-4.9V138h4.9v10.7l2.1-2.9l6-7.8h6l-8.4,10.5l8.6,13.1h-5.8L452.8,152.1z M488.9,151.3h-9.3v6.3h10.9v3.9h-15.8V138h15.8v3.9
		h-10.9v5.6h9.3V151.3z M509.8,148.6l4.9-10.6h5.3l-7.7,15v8.5h-4.9V153l-7.7-15h5.3L509.8,148.6z"/>
	<path display="inline" fill="#1A1A1A" d="M307.6,122.9L307.6,122.9c15.3,0,27.6,12.4,27.6,27.6l0,0c0,15.3-12.4,27.6-27.6,27.6l0,0
		c-15.3,0-27.6-12.4-27.6-27.6l0,0C280,135.2,292.4,122.9,307.6,122.9z"/>
	<ellipse display="inline" fill="#FFFFFF" cx="307.6" cy="144.7" rx="11.1" ry="11.1"/>
	<circle display="inline" fill="#1A1A1A" cx="307.7" cy="144.6" r="4.5"/>
	<rect x="303.6" y="154.9" display="inline" fill="#FFFFFF" width="8" height="12.4"/>
</g>
<g id="Layer_3">
	<g>
		<path fill="#1A1A1A" d="M282.8,128.2h38.8c1.5,0,2.8,1.2,2.8,2.8v7.9c0,1.5-1.2,2.8-2.8,2.8h-38.8c-1.5,0-2.8-1.2-2.8-2.8V131
			C280,129.5,281.2,128.2,282.8,128.2z"/>
		<path fill="#1A1A1A" d="M282.8,143.3h22.2c1.5,0,2.8,1.2,2.8,2.8v7.9c0,1.5-1.2,2.8-2.8,2.8h-22.2c-1.5,0-2.8-1.2-2.8-2.8V146
			C280,144.5,281.2,143.3,282.8,143.3z"/>
		<path fill="#1A1A1A" d="M292.2,171.8h-9c-1.5,0-2.8-1.2-2.8-2.8v-7.9c0-1.5,1.2-2.8,2.8-2.8h9c1.5,0,2.8,1.2,2.8,2.8v7.9
			C294.9,170.5,293.7,171.8,292.2,171.8z"/>
		<path fill="#1A1A1A" d="M292.2,171.8h-9c-1.5,0-2.8-1.2-2.8-2.8v-7.9c0-1.5,1.2-2.8,2.8-2.8h9c1.5,0,2.8,1.2,2.8,2.8v7.9
			C294.9,170.5,293.7,171.8,292.2,171.8z"/>
		<g>
			<path fill-rule="evenodd" clip-rule="evenodd" fill="#1A1A1A" d="M293.2,165.1c0,1.9-1.1,3.7-2.9,4.7c-0.8,0.5-1.8,0.7-2.7,0.7
				v-5.4L293.2,165.1z"/>
		</g>
		<g>
			<path fill-rule="evenodd" clip-rule="evenodd" fill="#1A1A1A" d="M287.1,170.5v-5.9l6.1,0c-0.1-0.8-0.3-1.5-0.7-2.3
				c-1.5-2.7-4.8-3.7-7.5-2.2c-2.7,1.5-3.7,4.8-2.2,7.5C283.7,169.3,285.4,170.3,287.1,170.5z"/>
			<path fill-rule="evenodd" clip-rule="evenodd" fill="#1A1A1A" d="M287.1,170.5v-5.9l6.1,0c-0.1-0.8-0.3-1.5-0.7-2.3
				c-1.5-2.7-4.8-3.7-7.5-2.2c-2.7,1.5-3.7,4.8-2.2,7.5C283.7,169.3,285.4,170.3,287.1,170.5z"/>
			<path fill-rule="evenodd" clip-rule="evenodd" fill="#1A1A1A" d="M287.1,170.5v-5.9l6.1,0c-0.1-0.8-0.3-1.5-0.7-2.3
				c-1.5-2.7-4.8-3.7-7.5-2.2c-2.7,1.5-3.7,4.8-2.2,7.5C283.7,169.3,285.4,170.3,287.1,170.5z"/>
		</g>
		<path fill="#1A1A1A" d="M352.6,154.5h-5.9v11.7h-5.3v-30.5h10.7c3.5,0,6.2,0.8,8.1,2.4c1.9,1.6,2.9,3.9,2.9,6.8
			c0,2-0.5,3.7-1.5,5.1c-1,1.4-2.3,2.4-4.1,3.2l6.8,12.7v0.3h-5.7L352.6,154.5z M346.7,150.3h5.4c1.8,0,3.2-0.4,4.2-1.3
			c1-0.9,1.5-2.1,1.5-3.7c0-1.6-0.5-2.9-1.4-3.8c-0.9-0.9-2.3-1.4-4.1-1.4h-5.6V150.3z"/>
		<path fill="#1A1A1A" d="M379.4,166.3c-0.2-0.4-0.4-1.1-0.6-2.1c-1.6,1.7-3.6,2.5-5.9,2.5c-2.3,0-4.1-0.6-5.6-1.9
			c-1.4-1.3-2.2-2.9-2.2-4.8c0-2.4,0.9-4.3,2.7-5.5c1.8-1.3,4.4-1.9,7.7-1.9h3.1v-1.5c0-1.2-0.3-2.1-1-2.8c-0.7-0.7-1.7-1.1-3-1.1
			c-1.2,0-2.1,0.3-2.8,0.9c-0.7,0.6-1.1,1.3-1.1,2.2h-5.1c0-1.2,0.4-2.4,1.2-3.5c0.8-1.1,1.9-1.9,3.3-2.6c1.4-0.6,3-0.9,4.7-0.9
			c2.7,0,4.8,0.7,6.3,2c1.6,1.3,2.4,3.2,2.4,5.6V161c0,2,0.3,3.7,0.9,4.9v0.4H379.4z M373.8,162.6c1,0,1.9-0.2,2.8-0.7
			c0.9-0.5,1.6-1.1,2-2v-4.3h-2.7c-1.9,0-3.3,0.3-4.2,1c-0.9,0.7-1.4,1.6-1.4,2.8c0,1,0.3,1.8,1,2.3
			C371.9,162.3,372.7,162.6,373.8,162.6z"/>
		<path fill="#1A1A1A" d="M399.2,148.3c-0.7-0.1-1.4-0.2-2.1-0.2c-2.3,0-3.9,0.9-4.7,2.7v15.5h-5.1v-22.7h4.9l0.1,2.5
			c1.2-2,2.9-3,5.1-3c0.7,0,1.3,0.1,1.8,0.3L399.2,148.3z"/>
		<path fill="#1A1A1A" d="M410.3,166.7c-3.2,0-5.8-1-7.8-3c-2-2-3-4.7-3-8.1v-0.6c0-2.3,0.4-4.3,1.3-6.1c0.9-1.8,2.1-3.2,3.7-4.2
			c1.6-1,3.3-1.5,5.3-1.5c3.1,0,5.5,1,7.1,3c1.7,2,2.5,4.8,2.5,8.4v2.1h-14.8c0.2,1.9,0.8,3.4,1.9,4.4c1.1,1.1,2.5,1.6,4.1,1.6
			c2.3,0,4.2-0.9,5.7-2.8l2.7,2.6c-0.9,1.4-2.1,2.4-3.6,3.2C413.8,166.3,412.2,166.7,410.3,166.7z M409.7,147.3
			c-1.4,0-2.5,0.5-3.4,1.5c-0.9,1-1.4,2.3-1.6,4.1h9.7v-0.4c-0.1-1.7-0.6-3-1.4-3.9C412.2,147.7,411.1,147.3,409.7,147.3z"/>
		<path fill="#1A1A1A" d="M441.5,155.2c0,3.5-0.8,6.3-2.4,8.4c-1.6,2.1-3.7,3.1-6.5,3.1c-2.7,0-4.7-1-6.2-2.9l-0.3,2.4h-4.6v-32.2
			h5.1v11.7c1.5-1.7,3.4-2.6,5.9-2.6c2.8,0,4.9,1,6.5,3.1c1.6,2.1,2.4,4.9,2.4,8.6V155.2z M436.4,154.7c0-2.5-0.4-4.3-1.3-5.5
			c-0.9-1.2-2.1-1.8-3.8-1.8c-2.2,0-3.8,1-4.6,2.9v9.3c0.9,2,2.5,3,4.7,3c1.6,0,2.8-0.6,3.7-1.8c0.9-1.2,1.3-3,1.3-5.4V154.7z"/>
		<path fill="#1A1A1A" d="M443.1,154.7c0-2.2,0.4-4.2,1.3-6c0.9-1.8,2.1-3.2,3.7-4.1c1.6-1,3.4-1.4,5.5-1.4c3.1,0,5.5,1,7.4,3
			c1.9,2,2.9,4.6,3.1,7.8l0,1.2c0,2.2-0.4,4.2-1.3,6c-0.9,1.8-2.1,3.1-3.7,4.1c-1.6,1-3.4,1.4-5.5,1.4c-3.2,0-5.8-1.1-7.7-3.2
			c-1.9-2.1-2.9-5-2.9-8.5V154.7z M448.2,155.2c0,2.3,0.5,4.2,1.4,5.5c1,1.3,2.3,2,4,2c1.7,0,3-0.7,4-2c1-1.3,1.4-3.3,1.4-5.9
			c0-2.3-0.5-4.1-1.5-5.4c-1-1.3-2.3-2-4-2c-1.7,0-3,0.7-4,2C448.7,150.6,448.2,152.5,448.2,155.2z"/>
		<path fill="#1A1A1A" d="M480.2,166.3c-0.2-0.4-0.4-1.1-0.6-2.1c-1.6,1.7-3.6,2.5-5.9,2.5c-2.3,0-4.1-0.6-5.6-1.9
			c-1.4-1.3-2.2-2.9-2.2-4.8c0-2.4,0.9-4.3,2.7-5.5c1.8-1.3,4.4-1.9,7.7-1.9h3.1v-1.5c0-1.2-0.3-2.1-1-2.8c-0.7-0.7-1.7-1.1-3-1.1
			c-1.2,0-2.1,0.3-2.8,0.9c-0.7,0.6-1.1,1.3-1.1,2.2h-5.1c0-1.2,0.4-2.4,1.2-3.5c0.8-1.1,1.9-1.9,3.3-2.6c1.4-0.6,3-0.9,4.7-0.9
			c2.6,0,4.8,0.7,6.3,2c1.6,1.3,2.4,3.2,2.4,5.6V161c0,2,0.3,3.7,0.9,4.9v0.4H480.2z M474.7,162.6c1,0,1.9-0.2,2.8-0.7
			c0.9-0.5,1.6-1.1,2-2v-4.3h-2.7c-1.9,0-3.3,0.3-4.2,1c-0.9,0.7-1.4,1.6-1.4,2.8c0,1,0.3,1.8,1,2.3
			C472.7,162.3,473.6,162.6,474.7,162.6z"/>
		<path fill="#1A1A1A" d="M500,148.3c-0.7-0.1-1.4-0.2-2.1-0.2c-2.3,0-3.9,0.9-4.7,2.7v15.5h-5.1v-22.7h4.9l0.1,2.5
			c1.2-2,2.9-3,5.1-3c0.7,0,1.3,0.1,1.8,0.3L500,148.3z"/>
		<path fill="#1A1A1A" d="M500.2,154.8c0-3.5,0.8-6.3,2.4-8.4c1.6-2.1,3.8-3.2,6.5-3.2c2.4,0,4.3,0.8,5.8,2.5v-11.6h5.1v32.2h-4.6
			l-0.3-2.3c-1.5,1.8-3.6,2.8-6.1,2.8c-2.7,0-4.8-1.1-6.4-3.2C501,161.3,500.2,158.4,500.2,154.8z M505.2,155.2
			c0,2.3,0.4,4.1,1.3,5.4c0.9,1.3,2.2,1.9,3.8,1.9c2.1,0,3.6-0.9,4.6-2.8v-9.7c-0.9-1.8-2.4-2.7-4.5-2.7c-1.6,0-2.9,0.7-3.8,2
			C505.7,150.6,505.2,152.6,505.2,155.2z"/>
	</g>
</g>
</svg>
