<svg id="Layer_1" data-name="Layer 1" xmlns="http://www.w3.org/2000/svg" viewBox="0 0 800 800">
  <defs>
    <style>
      .cls-1, .cls-2 {
        fill: none;
      }

      .cls-2 {
        stroke: #1A1A1A;
        stroke-linecap: round;
        stroke-miterlimit: 10;
        stroke-width: 6px;
      }
    </style>
  </defs>
  <rect class="cls-1" width="800" height="800"/>
  <path class="cls-2" d="M322.57,392.14a9.8,9.8,0,0,0,10.21,9.36l.34,0c7.14-.89,11.1-11.21,5.37-12.24a28,28,0,0,0-28,12.25c21.44,8.19,44.5.17,47.53-5.87,3.17-6.33-4.76-11.62-11.32-12.78-20.18-3.6-39,4.72-44.68,12.31-9.43,12.63-2.12,42.71,22.39,54.07,6.22,2.86,16.7,5.53,23,2.86,13.27-5.51,21.6-31.28,25.23-45.17,2-7.56,2.05-17.48,10.29-18.25a11.5,11.5,0,0,1,9.51,4C402,403.15,395,418,411.61,445c2.3,3.75,4.93,7.45,5.72,11.75a15.21,15.21,0,0,1-22.15,16.22,2.18,2.18,0,0,1-.91-2.94,2.44,2.44,0,0,1,.49-.62,43.53,43.53,0,0,0,6.22-6.79,2.55,2.55,0,0,0-2.43-4c-5.37.81-10.3,5.5-12.63,10.73-3,6.78-3.25,14.49-5.49,21.57-5.2,16.49-25.89,25.73-41.15,34.54a3.16,3.16,0,0,0,1.54,5.89c6.06.13,18.25-.39,24.29-1.84a90.29,90.29,0,0,1,52.16,3,4,4,0,0,0,5.24-2.2,4.87,4.87,0,0,0,.23-.83c.3-2-1.23-3-2.64-3.84-43.06-25.07-76.74-1.65-72.18,16.21s49,30,72.14,2.31a10.16,10.16,0,0,0,2.46-6.28c.2-13.94-32.49,2.12-51.52,5.26-29.22,4.82-60.36-9.39-67.49-6.79a10.65,10.65,0,0,0-5,4.73c-5.91,9.52-4.28,21.85-1,32.56,19.16,61.68,83.28,89.11,130.48,61.86,31.75-18.34,87.83-87.43,90.3-178.94.11-3.95.2-8.17,3.59-10.93a4.83,4.83,0,0,1,6.14-.1c5.07,4.28-4.4,11.56-3.51,18.09.41,3,3.14,5.39,3.55,8.43.62,4.4-3.57,7.76-6.58,11s-4.62,10.1.11,11.52a5.71,5.71,0,0,0,6.07-2.16c14.89-19.52,15.18-45.57,15-69.85,0-5.6-.67-12.29-6.56-14.29a9.59,9.59,0,0,0-8.74,1.6c-5.61,4.12-7.08,10.76-9.48,16.78a57.41,57.41,0,0,1-51.36,35.22c-40,.49-66.1-41.85-52-65.56,5.33-9,15.89-13.82,26.28-14.75,11.82-1,23.61,2.31,34.93,5.52,7.3,2.07,12.6,10.82,1.86,18.21-9.34,6.41-21.11,8.16-32.43,8.2-7.61,0-15.72-.77-20.42-9s12.13-19.34,31.44-11.26a8.43,8.43,0,0,1,4.11,3.43c2.86,4.95-1.87,8.93-6.21,8.93-9.33,0-29.81-19.06-36.5-26.5a12.83,12.83,0,0,1-2.86-5c-1.77-6.22,2.86-9.32,7.15-11.44,32.57-16.07,75.22-6.67,99.11,20.29a6.16,6.16,0,0,0,10.78-3.7c.51-9.88-2.65-18-14.05-55.87-2.16-7.14-4.53-14.75-10-20-4.55-4.38-10.85-6.73-15.05-11.43-5.51-6.17-6.79-15.72-13.46-20.63-6.16-4.53-14.68-3.52-22-5.8-12.94-4.09-11.44-10.68-37.06-8.85-45.81,3.29-54.4,3.12-64.3,7.65-8,3.67-14.66,10.26-23.11,12.86s-18.57,1.08-25.63,6.53c-6.13,4.7-7.85,13-11.62,19.76-5.72,10.35-16.58,17.08-22.74,27.15a73.21,73.21,0,0,0-6.53,16c-5,15.72-10,31.58-10.24,48-.87,72.12,91,97.17,109.61,8.9,6-28.58-4.68-44.29-34.12-47.15C294.68,352.72,273,369,258.31,375.2a11.3,11.3,0,0,1-15.6-10.68c.37-13.13,8.46-16.47,6.56-21.5-1.43-3.83-6.18-3.15-12.57-15.92-4.45-8.91-5.94-19.62-.5-29a20.31,20.31,0,0,1,20.15-10.36c18.39,2.65,18.92,30,3.85,28.58a12.51,12.51,0,0,1-9.81-7c-6.38-12.86,5.61-27,5.18-40.34-.2-5.89-2.63-11.52-2.86-17.41-.7-18.22,20-27.39,25.23-23.19,1.79,1.43,1.82,4.13,1.58,6.42a72.09,72.09,0,0,1-4.29,17.79,3.49,3.49,0,0,0,2,4.53,3.54,3.54,0,0,0,3.06-.24,13.93,13.93,0,0,0,6.05-8.34c3.23-13.34-7.4-27.3-3.74-40.55s21.52-18.73,33.44-12.1c17.32,9.64,17.32,35.31,12.4,40.39a7.81,7.81,0,0,1-4.28,2.05c-9.71,1.7-18.68-7.8-19.44-17.64C303.37,203.46,323,182,339.76,178.77c10.82-2.06,23.54,3.07,26.41,14.29,4.07,16.05-15.16,28.06-28.92,10.23A36.56,36.56,0,0,1,335,163.05a35.73,35.73,0,0,1,65.51,11.43c1.88,9.49-2.23,21.84-12.64,22-7.51.15-15.72-7.26-14.79-20.86.86-13,12-25.92,24.9-24.29,11.13,1.43,19.4,12.59,45.31,13.5,2.86.1,4.4-.77,4.42-3.8,0-10.75-19.54-17.35-28.48,3.59-5.63,13.17-2.32,29,18.11,29,30,0,39.14-24.5,58-21.13,9.72,1.74,16.4,12.72,14.29,22.35s-12.05,16.63-21.91,16.26c-8.47-.41-17.66-8.06-13.37-16.49a11.53,11.53,0,0,1,13-5.72c12.13,2.86,16.74,14.06,24.8,21.64a36.57,36.57,0,0,0,26.95,9.8c6.06-.37,8.92-7.86,1.13-11.43-17.34-7.82-35.94,19.19-5.57,33.47,7.15,3.33,14.86,5.64,20.72,10.84,12.52,11.12,10.59,33.7-2.67,43.9-8.93,6.86-22.27,8.15-31.58,1.82-11.78-8-14.29-28.38.71-35.73a22.73,22.73,0,0,1,21,.49c13.41,7.56,15.39,26.09,7.68,38.39-2.72,4.29-6.43,8-8.79,12.52s-3.07,10.52.21,14.42c4.8,5.72,20.17,7.92,24.51-2,3.8-8.65-7-16.32-13.52-7.15-8.57,12,3,28,5.37,39.5,3.45,16.73-4.28,30.72-13.1,45.34"/>
</svg>
