<svg id="Layer_1" data-name="Layer 1" xmlns="http://www.w3.org/2000/svg" viewBox="0 0 800 800">
  <defs>
    <style>
      .cls-1, .cls-2 {
        fill: none;
      }

      .cls-2 {
        stroke: #1A1A1A;
        stroke-linecap: round;
        stroke-miterlimit: 10;
        stroke-width: 6px;
      }
    </style>
  </defs>
  <rect class="cls-1" width="800" height="800"/>
  <path class="cls-2" d="M483.67,377.77c-6.13,5.1-2,17.23,6,17.55,11.88.47,16.3-24.19-7.25-19.89A44.08,44.08,0,0,0,457.85,389c-4.73,5.21-3.77,10,5,10.94,9.31,1,19,2,27.83-1s16.68-11.3,16-20.63c-.6-8-7.15-14.48-14.65-17.33s-15.72-2.78-23.65-2.53c-16.67.51-25.84,3.73-29.26,19.41-6.57,30.3,15.33,64.14,45.87,69.49,40.33,7.07,79.18-37.85,59.14-74.64-7.42-13.61-22.41-21.81-37.65-24.57s-30.92-.74-46.23,1.73c-7.38,1.19-15,2.59-21.2,6.78C424,366.77,414.41,398.5,454.31,428.9c5.71,4.38,12.27,9,14.11,16s-5,16-11.56,12.95c-4.06-1.9-5.71-7.28-9.9-8.88-8.24-3.14-18.57,13.39,1.16,22.42,5.27,2.4,11.07,3.7,16,6.79,14.29,9,17.33,32.3,10.24,35.13-2.64,1.05-5.53-.53-8-1.84-23.24-12.23-55.14-3.89-69.43,18.15-2,3.1-4.2,6.75-7.86,7.28-4.68.66-8.34-4.9-7.54-9.56s4.46-8.26,8.14-11.21A96.12,96.12,0,0,1,435.74,496c14.29-2.08,31.44.43,39,12.78,5.07,8.24-3.72,11.53-13.48,10.45-22.61-2.5-60.24-11-66.91,10.72-2.86,9.36,18.08,5.46,27.44,2.6,20-6.07,41-26.92,60-18.24,16.34,7.45-5.25,35.13-20,45.45-32.56,22.86-60.71,11.91-70.18-5-6-10.83,3-15.41,9.43-14.84,4.67.41,8.9,2.75,13.24,4.5,21.14,8.46,47.47,1.24,61.36-16.79,6.6-8.57,13.87-20.76,24.42-18.25,7.45,1.77,10.91,10.19,13,17.55,9,31.23,13.52,68-6.5,93.56-33.26,42.55-155,31.19-199.41-54.1-15.83-30.44-24.44-64.09-31.43-97.69q-6-28.57-10.47-57.32c-3-19.12-1.33-31.66,28.57-41.26a300.21,300.21,0,0,1,39.34-9.65c16.93-3,35.65-4.29,50,5.12,15.63,10.13,22,31.22,17.69,49.32-6.46,26.85-34.38,47.31-56.57,50.38-25.26,3.49-51.44-16.66-54.38-42s17.63-51,43-53.57c17.58-1.75,37.15,8.79,40.76,26.07,1.62,7.74-1.83,7.25-21.59,13.91-5.72,1.95-11.89,3.9-17.74,2.32s-10.64-8.33-7.93-13.73c2-4,15.15-14.22,25.49-11.79,7.49,1.76,12.32,12.57,6.36,17.43-8,6.52-26.17-7.24-8.23-26,10.56-11,25.44-16.73,40.1-21a310.19,310.19,0,0,1,135.53-8.41c4.49.72,10.35.88,12.19-3.3,2.37-5.31,2.39-32.44-20.86-56.16C503.23,275,485.37,265.6,467.19,258c-96.74-40.55-161-9.09-196.4,93.27-3.5,10.15-4,25.72-14.29,28.58-9,2.37-9.43-15.26-6.1-23.9s8.71-17.95,5.27-26.57c-2.24-5.61-7.77-9.28-10.57-14.64C239,303,248,283.67,256.7,279.67c4.37-2,10.47-.84,12.54,3.49s-3.6,11.91-7.14,8.57c-7.14-6.83-.63-19.92,6.21-27s12.24-7.67,15.52-16.94c2.13-6,3.09-8.95-2.27-12.38s-12.86-4.28-18-.48c-7.32,5.33-5.92,18.09,1.64,23.07,12.86,8.49,34.85-3.13,31.77-29.39-.6-5-2.05-10-1.28-15.07,1.92-12.26,18.58-24.86,28.74-17.83,2.64,1.82,1.77,6.51,4.1,8.73,2.64,2.54,7-2.15,7.61-5.72s-.55-7.27-.55-10.93c0-10.73,12.33-19.46,22.46-15.95,5.11,1.76,9.41,6.61,9.2,12-.41,10-16.87,14-17.15-3.66-.3-20,19.69-38,39.61-35.44,6.66.85,13.49,4,16.6,10,3,5.71,2,12.61,3.56,18.84s10.22,14.29,13.86,9c5.83-8.47-9.21-20.19-19.09-17.33s-13.91,17.27-6.94,24.83c5.4,5.85,23.1,11.19,34.75,8.58,7.44-1.7,14.43-7.15,16.11-14.59s-3.85-18.86-11.21-16.79c-8.9,2.51-7.7,17.42-2.12,24.79s15.15,10.69,24.29,11.59c6.13.6,13.52-.4,16.33-5.88,3.11-6-2.72-14.07-9.51-14.1-15.22,0-24,29.76,14.42,38.58,8.88,2,18.43,3.23,25.63,8.83s5.47,14.57,3.49,23.55c-1,4.37,7.64,4.37,11.85,2.86s8.29-4.11,12.75-3.81c10.24.69,12.86,14.44,12.56,24.71-.77,25.63,4.73,26.66-1.59,51.52"/>
</svg>
