<?xml version="1.0" encoding="utf-8"?>
<!-- Generator: Adobe Illustrator 24.2.0, SVG Export Plug-In . SVG Version: 6.00 Build 0)  -->
<svg version="1.0" id="Layer_1" shape-rendering="optimizeSpeed"
	 xmlns="http://www.w3.org/2000/svg" xmlns:xlink="http://www.w3.org/1999/xlink" x="0px" y="0px" viewBox="0 0 1890 1080"
	 enable-background="new 0 0 1890 1080" xml:space="preserve">
<path fill="#CCCCCC" d="M0,0h135v135H0V0z"/>
<path fill="#E6E6E6" d="M135,0h135v135H135V0z"/>
<path fill="#B3B3B3" d="M0,135h135v135H0V135z"/>
<path fill="#F2F2F2" d="M135,135h135v135H135V135z"/>
<circle fill="#E6E6E6" cx="135" cy="135" r="135"/>
<circle fill="#B3B3B3" cx="135" cy="135" r="67.5"/>
<path fill="#F2F2F2" d="M270,0v135H135V0H270z"/>
<path fill="#B3B3B3" d="M162,162h81v81h-81V162z"/>
<path fill="#CCCCCC" d="M540,270H405V135h135V270z"/>
<path fill="#E6E6E6" d="M405,270H270V135h135V270z"/>
<path fill="#B3B3B3" d="M540,135H405V0h135V135z"/>
<path fill="#F2F2F2" d="M405,135H270V0h135V135z"/>
<g>
	<circle fill="#B3B3B3" cx="405" cy="135" r="135"/>
	<circle fill="#B3B3B3" cx="405" cy="135" r="67.5"/>
</g>
<path fill="#F2F2F2" d="M270,270V135h135v135H270z"/>
<path fill="#E6E6E6" d="M270,135v135h135C330,270,270,209.1,270,135z"/>
<path fill="#B3B3B3" d="M540,0h135v135H540V0z"/>
<path fill="#E6E6E6" d="M675,0h135v135H675V0z"/>
<path fill="#CCCCCC" d="M540,135h135v135H540V135z"/>
<g>
	<path fill="#F2F2F2" d="M675,135h135v135H675V135z"/>
	<path fill="#F2F2F2" d="M540,135L675,0l135,135L675,270L540,135z"/>
</g>
<circle fill="#B3B3B3" cx="675" cy="135" r="67.5"/>
<path fill="#CCCCCC" d="M540,0v270h270L540,0z"/>
<path fill="#E6E6E6" d="M567,162l81,81v-81H567z"/>
<path fill="#CCCCCC" d="M675,540V405h135v135H675z"/>
<path fill="#E6E6E6" d="M675,405V270h135v135H675z"/>
<path fill="#B3B3B3" d="M540,540V405h135v135H540z"/>
<path fill="#F2F2F2" d="M540,405V270h135v135H540z"/>
<circle fill="#CCCCCC" cx="675" cy="405" r="135"/>
<path fill="#B3B3B3" d="M742.5,337.5v135h-135v-135H742.5z"/>
<g>
	<path fill="#F2F2F2" d="M810,270H540v270L810,270z"/>
	<g>
		<path id="F" fill="#F2F2F2" d="M675,472.5c37.3,0,67.5-30.2,67.5-67.5s-30.2-67.5-67.5-67.5V472.5z"/>
	</g>
</g>
<path fill="#B3B3B3" d="M567,432l81,81v-81H567z"/>
<path fill="#E6E6E6" d="M405,270v135H270V270H405z"/>
<path fill="#F2F2F2" d="M405,405v135H270V405H405z"/>
<path fill="#CCCCCC" d="M540,405v135H405V405H540z"/>
<path fill="#B3B3B3" d="M540,270v135H405V270H540z"/>
<path fill="#CCCCCC" d="M270,405l135-135l135,135L405,540L270,405z"/>
<path fill="#B3B3B3" d="M472.5,472.5h-135v-135h135V472.5z"/>
<path fill="#E6E6E6" d="M337.5,405c0,37.3,30.2,67.5,67.5,67.5s67.5-30.2,67.5-67.5H337.5z"/>
<path fill="#B3B3B3" d="M378,297l-81,81h81V297z"/>
<path fill="#CCCCCC" d="M270,810V675h135v135H270z"/>
<path fill="#E6E6E6" d="M270,675V540h135v135H270z"/>
<path fill="#B3B3B3" d="M405,810V675h135v135H405z"/>
<g>
	<path fill="#F2F2F2" d="M405,675V540h135v135H405z"/>
	<circle fill="#F2F2F2" cx="405" cy="675" r="135"/>
</g>
<circle fill="#B3B3B3" cx="405" cy="675" r="67.5"/>
<path fill="#CCCCCC" d="M540,540v135H405V540H540z"/>
<path fill="#E6E6E6" d="M297,702l81,81v-81H297z M0,405h135v135H0V405z"/>
<g>
	<path fill="#CCCCCC" d="M135,405h135v135H135V405z"/>
	<path fill="#CCCCCC" d="M135,270h135v135H135V270z"/>
</g>
<path fill="#B3B3B3" d="M0,270h135v135H0V270z"/>
<path fill="#F2F2F2" d="M0,405l135-135l135,135L135,540L0,405z"/>
<path fill="#B3B3B3" d="M202.5,337.5v135h-135v-135H202.5z"/>
<path fill="#F2F2F2" d="M270,270v135H135V270H270z"/>
<path fill="#CCCCCC" d="M243,378l-81-81v81H243z"/>
<path fill="#E6E6E6" d="M135,810V675h135v135H135z"/>
<path fill="#F2F2F2" d="M135,675V540h135v135H135z"/>
<path fill="#CCCCCC" d="M0,675V540h135v135H0z"/>
<path fill="#B3B3B3" d="M0,810V675h135v135H0z"/>
<path fill="#CCCCCC" d="M0,675l135-135l135,135L135,810L0,675z"/>
<path fill="#B3B3B3" d="M67.5,607.5h135v135h-135V607.5z"/>
<path fill="#E6E6E6" d="M202.5,675c0-37.3-30.2-67.5-67.5-67.5S67.5,637.7,67.5,675H202.5z"/>
<path fill="#B3B3B3" d="M162,783l81-81h-81V783z M540,540h135v135H540V540z"/>
<path fill="#E6E6E6" d="M675,540h135v135H675V540z"/>
<path fill="#CCCCCC" d="M540,675h135v135H540V675z"/>
<g>
	<path fill="#F2F2F2" d="M675,675h135v135H675V675z"/>
	<path fill="#F2F2F2" d="M810,540v135H540V540H810z"/>
</g>
<circle fill="#B3B3B3" cx="675" cy="675" r="67.5"/>
<path fill="#E6E6E6" d="M810,810V540H540L810,810z"/>
<g>
	<path id="G" fill="#B3B3B3" d="M675,607.5c-37.3,0-67.5,30.2-67.5,67.5s30.2,67.5,67.5,67.5V607.5z"/>
</g>
<path fill="#E6E6E6" d="M567,702l81,81v-81H567z"/>
<path fill="#CCCCCC" d="M270,1080H135V945h135V1080z"/>
<path fill="#E6E6E6" d="M135,1080H0V945h135V1080z"/>
<path fill="#B3B3B3" d="M270,945H135V810h135V945z"/>
<g>
	<path fill="#F2F2F2" d="M135,945H0V810h135V945z"/>
	<path fill="#F2F2F2" d="M270,810v135H0V810H270z"/>
</g>
<circle fill="#B3B3B3" cx="135" cy="945" r="67.5"/>
<path fill="#E6E6E6" d="M270,810v135H135V810H270z"/>
<g>
	<path id="G_1_" fill="#CCCCCC" d="M135,877.5c-37.3,0-67.5,30.2-67.5,67.5s30.2,67.5,67.5,67.5V877.5z"/>
</g>
<path fill="#B3B3B3" d="M243,918l-81-81v81H243z"/>
<path fill="#E6E6E6" d="M675,810v135H540V810H675z"/>
<path fill="#F2F2F2" d="M675,945v135H540V945H675z"/>
<path fill="#CCCCCC" d="M810,945v135H675V945H810z"/>
<path fill="#B3B3B3" d="M810,810v135H675V810H810z"/>
<path fill="#F2F2F2" d="M540,1080V945h270v135H540z"/>
<path fill="#B3B3B3" d="M742.5,1012.5h-135v-135h135V1012.5z"/>
<path fill="#F2F2F2" d="M810,1080H675V945h135V1080z"/>
<g>
	<g>
		<path id="F_1_" fill="#CCCCCC" d="M675,1012.5c37.3,0,67.5-30.2,67.5-67.5s-30.2-67.5-67.5-67.5V1012.5z"/>
	</g>
	<path fill="#CCCCCC" d="M567,972l81,81v-81H567z M540,945H405V810h135V945z"/>
</g>
<path fill="#E6E6E6" d="M405,945H270V810h135V945z"/>
<path fill="#B3B3B3" d="M540,1080H405V945h135V1080z"/>
<g>
	<path fill="#F2F2F2" d="M405,1080H270V945h135V1080z"/>
	<path fill="#F2F2F2" d="M540,810v135H270V810H540z"/>
</g>
<path fill="#B3B3B3" d="M337.5,877.5h135v135h-135V877.5z"/>
<path fill="#CCCCCC" d="M540,1080V810H270L540,1080z"/>
<g>
	<g>
		<path id="G_2_" fill="#E6E6E6" d="M405,877.5c-37.3,0-67.5,30.2-67.5,67.5s30.2,67.5,67.5,67.5V877.5z"/>
	</g>
	<path fill="#E6E6E6" d="M432,1053l81-81h-81V1053z"/>
</g>
<path fill="#CCCCCC" d="M1080,810v135H945V810H1080z"/>
<path fill="#E6E6E6" d="M1080,945v135H945V945H1080z"/>
<path fill="#B3B3B3" d="M945,810v135H810V810H945z"/>
<path fill="#F2F2F2" d="M945,945v135H810V945H945z"/>
<path fill="#CCCCCC" d="M1080,810v135H810V810H1080z"/>
<circle fill="#B3B3B3" cx="945" cy="945" r="67.5"/>
<g>
	<path fill="#E6E6E6" d="M810,810h135v135H810V810z"/>
	<path fill="#E6E6E6" d="M810,1080h135L810,945V1080z"/>
</g>
<path fill="#F2F2F2" d="M1053,918l-81-81v81H1053z"/>
<path fill="#CCCCCC" d="M945,0v135H810V0H945z"/>
<path fill="#E6E6E6" d="M945,135v135H810V135H945z"/>
<path fill="#B3B3B3" d="M1080,0v135H945V0H1080z"/>
<path fill="#F2F2F2" d="M1080,135v135H945V135H1080z"/>
<path fill="#CCCCCC" d="M1080,0v135H810V0H1080z"/>
<g>
	<path fill="#B3B3B3" d="M877.5,202.5v-135h135v135H877.5z"/>
	<path fill="#B3B3B3" d="M1080,0H810v270L1080,0z"/>
</g>
<path fill="#E6E6E6" d="M810,270h135L810,135V270z"/>
<path fill="#F2F2F2" d="M918,27l-81,81h81V27z"/>
<path fill="#B3B3B3" d="M1080,270v135H945V270H1080z"/>
<path fill="#E6E6E6" d="M1080,405v135H945V405H1080z"/>
<path fill="#CCCCCC" d="M945,270v135H810V270H945z"/>
<path fill="#F2F2F2" d="M945,405v135H810V405H945z"/>
<g>
	<path fill="#B3B3B3" d="M810,270h135v270H810V270z"/>
	<circle fill="#B3B3B3" cx="945" cy="405" r="67.5"/>
</g>
<path fill="#F2F2F2" d="M1080,540V270H810L1080,540z"/>
<path fill="#E6E6E6" d="M1080,270H945l135,135V270z"/>
<path fill="#CCCCCC" d="M837,432h81v81h-81V432z M1080,675H945V540h135V675z"/>
<path fill="#E6E6E6" d="M945,675H810V540h135V675z"/>
<path fill="#B3B3B3" d="M1080,810H945V675h135V810z"/>
<path fill="#F2F2F2" d="M945,810H810V675h135V810z"/>
<g>
	<path fill="#B3B3B3" d="M810,810V675h270v135H810z"/>
	<path fill="#B3B3B3" d="M877.5,607.5h135v135h-135V607.5z"/>
</g>
<path fill="#F2F2F2" d="M810,540v270h270L810,540z"/>
<path fill="#E6E6E6" d="M1080,810V675L945,810H1080z M837,702h81v81h-81V702z M1755,810v135h-135V810H1755z"/>
<path fill="#F2F2F2" d="M1755,945v135h-135V945H1755z"/>
<path fill="#CCCCCC" d="M1890,945v135h-135V945H1890z"/>
<g>
	<path fill="#B3B3B3" d="M1890,810v135h-135V810H1890z"/>
	<path fill="#B3B3B3" d="M1620,945l135-135l135,135l-135,135L1620,945z"/>
	<path fill="#B3B3B3" d="M1822.5,1012.5h-135v-135h135V1012.5z"/>
</g>
<path fill="#F2F2F2" d="M1890,1080h-135V945h135V1080z"/>
<path fill="#CCCCCC" d="M1890,945V810h-135C1830,810,1890,870.9,1890,945z"/>
<path fill="#B3B3B3" d="M1647,837h81v81h-81V837z M1620,1080h-135V945h135V1080z"/>
<path fill="#E6E6E6" d="M1485,1080h-135V945h135V1080z"/>
<path fill="#CCCCCC" d="M1620,945h-135V810h135V945z"/>
<path fill="#F2F2F2" d="M1485,945h-135V810h135V945z"/>
<path fill="#E6E6E6" d="M1350,945l135-135l135,135l-135,135L1350,945z"/>
<circle fill="#B3B3B3" cx="1485" cy="945" r="67.5"/>
<path fill="#CCCCCC" d="M1350,1080h270V810L1350,1080z"/>
<path fill="#F2F2F2" d="M1552.5,945c0-37.3-30.2-67.5-67.5-67.5s-67.5,30.2-67.5,67.5H1552.5z"/>
<path fill="#B3B3B3" d="M1512,972h81v81h-81V972z"/>
<path fill="#CCCCCC" d="M1620,540h135v135h-135V540z"/>
<path fill="#E6E6E6" d="M1755,540h135v135h-135V540z"/>
<path fill="#B3B3B3" d="M1620,675h135v135h-135V675z"/>
<path fill="#F2F2F2" d="M1755,675h135v135h-135V675z"/>
<g>
	<circle fill="#B3B3B3" cx="1755" cy="675" r="135"/>
	<circle fill="#B3B3B3" cx="1755" cy="675" r="67.5"/>
</g>
<path fill="#F2F2F2" d="M1890,540v135h-135V540H1890z"/>
<path fill="#E6E6E6" d="M1890,675V540h-135C1830,540,1890,600.9,1890,675z"/>
<path fill="#B3B3B3" d="M1620,810h-135V675h135V810z"/>
<path fill="#E6E6E6" d="M1485,810h-135V675h135V810z"/>
<path fill="#CCCCCC" d="M1620,675h-135V540h135V675z"/>
<g>
	<path fill="#F2F2F2" d="M1485,675h-135V540h135V675z"/>
	<path fill="#F2F2F2" d="M1350,675l135-135l135,135l-135,135L1350,675z"/>
</g>
<circle fill="#B3B3B3" cx="1485" cy="675" r="67.5"/>
<path fill="#CCCCCC" d="M1620,810V540h-270L1620,810z"/>
<path fill="#E6E6E6" d="M1593,648l-81-81v81H1593z"/>
<path fill="#CCCCCC" d="M1485,270v135h-135V270H1485z"/>
<path fill="#E6E6E6" d="M1485,405v135h-135V405H1485z"/>
<path fill="#B3B3B3" d="M1620,270v135h-135V270H1620z"/>
<path fill="#F2F2F2" d="M1620,405v135h-135V405H1620z"/>
<circle fill="#CCCCCC" cx="1485" cy="405" r="135"/>
<path fill="#B3B3B3" d="M1417.5,472.5v-135h135v135H1417.5z"/>
<g>
	<path fill="#F2F2F2" d="M1350,540h270V270L1350,540z"/>
	<g>
		<path id="G_3_" fill="#F2F2F2" d="M1485,337.5c-37.3,0-67.5,30.2-67.5,67.5s30.2,67.5,67.5,67.5V337.5z"/>
	</g>
</g>
<path fill="#B3B3B3" d="M1593,378l-81-81v81H1593z"/>
<path fill="#E6E6E6" d="M1755,540V405h135v135H1755z"/>
<path fill="#F2F2F2" d="M1755,405V270h135v135H1755z"/>
<path fill="#CCCCCC" d="M1620,405V270h135v135H1620z"/>
<path fill="#B3B3B3" d="M1620,540V405h135v135H1620z"/>
<path fill="#CCCCCC" d="M1620,405l135-135l135,135l-135,135L1620,405z"/>
<path fill="#B3B3B3" d="M1687.5,337.5h135v135h-135V337.5z"/>
<path fill="#E6E6E6" d="M1822.5,405c0-37.3-30.2-67.5-67.5-67.5s-67.5,30.2-67.5,67.5H1822.5z"/>
<path fill="#B3B3B3" d="M1782,513l81-81h-81V513z"/>
<path fill="#CCCCCC" d="M1890,0v135h-135V0H1890z"/>
<path fill="#E6E6E6" d="M1890,135v135h-135V135H1890z"/>
<path fill="#B3B3B3" d="M1755,0v135h-135V0H1755z"/>
<g>
	<path fill="#F2F2F2" d="M1755,135v135h-135V135H1755z"/>
	<circle fill="#F2F2F2" cx="1755" cy="135" r="135"/>
</g>
<circle fill="#B3B3B3" cx="1755" cy="135" r="67.5"/>
<path fill="#CCCCCC" d="M1620,270V135h135v135H1620z"/>
<path fill="#E6E6E6" d="M1863,108l-81-81v81H1863z"/>
<path fill="#B3B3B3" d="M1620,270h-135V135h135V270z"/>
<path fill="#E6E6E6" d="M1485,270h-135V135h135V270z"/>
<path fill="#CCCCCC" d="M1620,135h-135V0h135V135z"/>
<g>
	<path fill="#F2F2F2" d="M1485,135h-135V0h135V135z"/>
	<path fill="#F2F2F2" d="M1350,270V135h270v135H1350z"/>
</g>
<circle fill="#B3B3B3" cx="1485" cy="135" r="67.5"/>
<path fill="#E6E6E6" d="M1350,0v270h270L1350,0z"/>
<g>
	<path id="F_2_" fill="#B3B3B3" d="M1485,202.5c37.3,0,67.5-30.2,67.5-67.5s-30.2-67.5-67.5-67.5V202.5z"/>
</g>
<path fill="#E6E6E6" d="M1593,108l-81-81v81H1593z"/>
<path fill="#CCCCCC" d="M1215,810V675h135v135H1215z"/>
<path fill="#E6E6E6" d="M1215,675V540h135v135H1215z"/>
<path fill="#B3B3B3" d="M1080,810V675h135v135H1080z"/>
<path fill="#F2F2F2" d="M1080,675V540h135v135H1080z"/>
<path fill="#CCCCCC" d="M1080,810V675h270v135H1080z"/>
<g>
	<path fill="#B3B3B3" d="M1282.5,607.5v135h-135v-135H1282.5z"/>
	<path fill="#B3B3B3" d="M1080,810h270V540L1080,810z"/>
</g>
<path fill="#E6E6E6" d="M1350,540h-135l135,135V540z"/>
<path fill="#F2F2F2" d="M1242,783l81-81h-81V783z"/>
<path fill="#CCCCCC" d="M1080,810h135v135h-135V810z"/>
<path fill="#E6E6E6" d="M1215,810h135v135h-135V810z"/>
<path fill="#B3B3B3" d="M1080,945h135v135h-135V945z"/>
<path fill="#F2F2F2" d="M1215,945h135v135h-135V945z"/>
<path fill="#CCCCCC" d="M1350,1080h-135V810h135V1080z"/>
<circle fill="#B3B3B3" cx="1215" cy="945" r="67.5"/>
<g>
	<path fill="#E6E6E6" d="M1350,810v135h-135V810H1350z"/>
	<path fill="#E6E6E6" d="M1350,1080V945l-135,135H1350z"/>
</g>
<path fill="#F2F2F2" d="M1107,972h81v81h-81V972z"/>
<path fill="#B3B3B3" d="M1080,540V405h135v135H1080z"/>
<path fill="#E6E6E6" d="M1080,405V270h135v135H1080z"/>
<path fill="#CCCCCC" d="M1215,540V405h135v135H1215z"/>
<path fill="#F2F2F2" d="M1215,405V270h135v135H1215z"/>
<g>
	<path fill="#B3B3B3" d="M1350,540h-135V270h135V540z"/>
	<circle fill="#B3B3B3" cx="1215" cy="405" r="67.5"/>
</g>
<path fill="#F2F2F2" d="M1080,270v270h270L1080,270z"/>
<path fill="#E6E6E6" d="M1080,540h135l-135-135V540z"/>
<path fill="#CCCCCC" d="M1242,297h81v81h-81V297z M1080,135h135v135h-135V135z"/>
<path fill="#E6E6E6" d="M1215,135h135v135h-135V135z"/>
<path fill="#B3B3B3" d="M1080,0h135v135h-135V0z"/>
<path fill="#F2F2F2" d="M1215,0h135v135h-135V0z"/>
<g>
	<path fill="#B3B3B3" d="M1350,0v135h-270V0H1350z"/>
	<path fill="#B3B3B3" d="M1282.5,202.5h-135v-135h135V202.5z"/>
</g>
<path fill="#F2F2F2" d="M1350,270V0h-270L1350,270z"/>
<path fill="#E6E6E6" d="M1080,0v135L1215,0H1080z M1242,27h81v81h-81V27z"/>
<path id="A" opacity="0" fill="none" d="M540,135h135v135H540V135z M1080,135h135v135h-135V135z M270,270h135v135H270V270z M945,270
	h135v135H945V270z M1485,270h135v135h-135V270z M135,405h135v135H135V405z M1485,405h135v135h-135V405z M0,540h135v135H0V540z
	 M675,540h135v135H675V540z M810,540h135v135H810V540z M1215,540h135v135h-135V540z M675,675h135v135H675V675z M1755,675h135v135
	h-135V675z M0,810h135v135H0V810z M270,810h135v135H270V810z M810,810h135v135H810V810z M1620,810h135v135h-135V810z M405,945h135
	v135H405V945z M540,945h135v135H540V945z M1215,945h135v135h-135V945z M1755,945h135v135h-135V945z M405,0h135v135H405V0z M540,0
	h135v135H540V0z M945,0h135v135H945V0z M1080,0h135v135h-135V0z M1620,0h135v135h-135V0z"/>
<path id="B" opacity="0" fill="none" d="M270,135h135v135H270V135z M405,135h135v135H405V135z M945,135h135v135H945V135z M135,270
	h135v135H135V270z M540,270h135v135H540V270z M675,270h135v135H675V270z M1215,270h135v135h-135V270z M1755,270h135v135h-135V270z
	 M270,405h135v135H270V405z M405,405h135v135H405V405z M1215,405h135v135h-135V405z M1620,405h135v135h-135V405z M1755,405h135v135
	h-135V405z M135,540h135v135H135V540z M405,540h135v135H405V540z M1080,540h135v135h-135V540z M1755,540h135v135h-135V540z M135,675
	h135v135H135V675z M540,675h135v135H540V675z M1080,675h135v135h-135V675z M1350,675h135v135h-135V675z M1620,675h135v135h-135V675z
	 M675,810h135v135H675V810z M945,810h135v135H945V810z M1485,810h135v135h-135V810z M0,945h135v135H0V945z M135,945h135v135H135V945
	z M810,945h135v135H810V945z M945,945h135v135H945V945z M0,0h135v135H0V0z"/>
<path id="C" opacity="0" fill="none" d="M135,135h135v135H135V135z M675,135h135v135H675V135z M1350,135h135v135h-135V135z
	 M1620,135h135v135h-135V135z M1755,135h135v135h-135V135z M0,270h135v135H0V270z M810,270h135v135H810V270z M1080,270h135v135h-135
	V270z M540,405h135v135H540V405z M675,405h135v135H675V405z M945,405h135v135H945V405z M1080,405h135v135h-135V405z M1350,405h135
	v135h-135V405z M270,540h135v135H270V540z M1485,540h135v135h-135V540z M1620,540h135v135h-135V540z M270,675h135v135H270V675z
	 M810,675h135v135H810V675z M945,675h135v135H945V675z M1215,675h135v135h-135V675z M405,810h135v135H405V810z M1080,810h135v135
	h-135V810z M1215,810h135v135h-135V810z M1350,945h135v135h-135V945z M1620,945h135v135h-135V945z M135,0h135v135H135V0z M810,0h135
	v135H810V0z M1215,0h135v135h-135V0z M1485,0h135v135h-135V0z M1755,0h135v135h-135V0z"/>
<path id="D" opacity="0" fill="none" d="M0,135h135v135H0V135z M810,135h135v135H810V135z M1215,135h135v135h-135V135z M1485,135
	h135v135h-135V135z M405,270h135v135H405V270z M1350,270h135v135h-135V270z M1620,270h135v135h-135V270z M0,405h135v135H0V405z
	 M810,405h135v135H810V405z M540,540h135v135H540V540z M945,540h135v135H945V540z M1350,540h135v135h-135V540z M0,675h135v135H0V675
	z M405,675h135v135H405V675z M1485,675h135v135h-135V675z M135,810h135v135H135V810z M540,810h135v135H540V810z M1350,810h135v135
	h-135V810z M1755,810h135v135h-135V810z M270,945h135v135H270V945z M675,945h135v135H675V945z M1080,945h135v135h-135V945z
	 M1485,945h135v135h-135V945z M270,0h135v135H270V0z M675,0h135v135H675V0z M1350,0h135v135h-135V0z"/>
<path opacity="0.85" fill="#FFFFFF" enable-background="new    " d="M0,0h1890v1080H0V0z"/>
<linearGradient id="SVGID_1_" gradientUnits="userSpaceOnUse" x1="202.4955" y1="1282.5015" x2="1687.4985" y2="-202.5015" gradientTransform="matrix(1 0 0 -1 0 1080)">
	<stop  offset="0" style="stop-color:#FFFFFF"/>
	<stop  offset="0.75" style="stop-color:#FFFFFF;stop-opacity:0"/>
</linearGradient>
<path fill="url(#SVGID_1_)" enable-background="new    " d="M0,1080h1890V0H0V1080z"/>
</svg>
