<svg xmlns="http://www.w3.org/2000/svg" shape-rendering="geometricPrecision" viewBox="0 0 224.47 46.11"><path d="M15.89,14.38a17.58,17.58,0,0,1,6.47,1.15,14.21,14.21,0,0,1,8.22,8.25,17.61,17.61,0,0,1,1.15,6.44,17.59,17.59,0,0,1-1.15,6.43,14.21,14.21,0,0,1-8.22,8.25,17.58,17.58,0,0,1-6.47,1.15A17.93,17.93,0,0,1,9.34,44.9a14.46,14.46,0,0,1-5-3.23,14,14,0,0,1-3.2-5A17.8,17.8,0,0,1,0,30.22a17.81,17.81,0,0,1,1.12-6.44,14.07,14.07,0,0,1,3.2-5,14.46,14.46,0,0,1,5-3.23,17.93,17.93,0,0,1,6.55-1.15m0,24a6.48,6.48,0,0,0,5.2-2.26A8.85,8.85,0,0,0,23,30.16a8.65,8.65,0,0,0-1.93-5.87,6.52,6.52,0,0,0-5.2-2.23,6.66,6.66,0,0,0-5.28,2.23,8.57,8.57,0,0,0-2,5.87,8.69,8.69,0,0,0,2,5.95,6.64,6.64,0,0,0,5.25,2.26m43.75,7A10.11,10.11,0,0,1,59.43,44c-.06-.56-.13-1.25-.22-2.05a9.3,9.3,0,0,1-4,3.08,14.48,14.48,0,0,1-5.65,1.09,17.84,17.84,0,0,1-6.11-1,13,13,0,0,1-4.8-3,13.78,13.78,0,0,1-3.17-5,18.88,18.88,0,0,1-1.15-6.89,17.33,17.33,0,0,1,1.18-6.55,14.51,14.51,0,0,1,8.15-8.25,16.21,16.21,0,0,1,6.14-1.15,15.42,15.42,0,0,1,5.23.9,9.53,9.53,0,0,1,4.07,2.7V0h8.59V37.41q0,1.62.18,4.47a24.69,24.69,0,0,0,.36,3.44Zm-.79-15.2a8,8,0,0,0-2.23-5.91,8.4,8.4,0,0,0-11.36,0A7.92,7.92,0,0,0,43,30.12a8,8,0,0,0,2.24,6,7.77,7.77,0,0,0,5.68,2.18,7.78,7.78,0,0,0,5.68-2.18,8,8,0,0,0,2.23-6m38.53,15.2A10.11,10.11,0,0,1,97.17,44c-.06-.56-.13-1.25-.21-2.05a9.39,9.39,0,0,1-4,3.08,14.44,14.44,0,0,1-5.65,1.09,17.78,17.78,0,0,1-6.1-1,12.91,12.91,0,0,1-4.81-3,13.78,13.78,0,0,1-3.17-5,18.88,18.88,0,0,1-1.15-6.89,17.33,17.33,0,0,1,1.18-6.55,14.92,14.92,0,0,1,3.26-5,14.73,14.73,0,0,1,4.9-3.23,16.16,16.16,0,0,1,6.13-1.15,15.38,15.38,0,0,1,5.23.9,9.62,9.62,0,0,1,4.08,2.7V0h8.58V37.41q0,1.62.18,4.47a24.69,24.69,0,0,0,.36,3.44Zm-.78-15.2a8,8,0,0,0-2.24-5.91,8.4,8.4,0,0,0-11.36,0,8,8,0,0,0-2.24,5.91,8,8,0,0,0,2.24,6,8.49,8.49,0,0,0,11.36,0,8,8,0,0,0,2.24-6m48,.34A18.3,18.3,0,0,1,143.52,37,14.59,14.59,0,0,1,140.44,42a12.9,12.9,0,0,1-4.69,3.08,16.44,16.44,0,0,1-6,1.06,13.72,13.72,0,0,1-6.16-1.27,10.48,10.48,0,0,1-3.87-3.08l-.42,3.56h-7.86V0h8.46V18.46a9.56,9.56,0,0,1,4.2-3.15,15.26,15.26,0,0,1,5.71-1.05,15.44,15.44,0,0,1,5.89,1.09,13.49,13.49,0,0,1,4.69,3.14,14.47,14.47,0,0,1,3.11,5.08,19.87,19.87,0,0,1,1.12,6.89m-8.65-.4a8,8,0,0,0-2.2-5.91,7.66,7.66,0,0,0-5.65-2.21,7.68,7.68,0,0,0-8,8.12,8,8,0,0,0,2.24,6,7.84,7.84,0,0,0,5.74,2.18,7.68,7.68,0,0,0,5.65-2.18,8.08,8.08,0,0,0,2.2-6m12.78,15.26h8.64V0h-8.64Zm28.58-30.94a17.58,17.58,0,0,1,6.47,1.15A14.21,14.21,0,0,1,192,23.78a17.6,17.6,0,0,1,1.14,6.44A17.59,17.59,0,0,1,192,36.65a14.21,14.21,0,0,1-8.22,8.25,17.58,17.58,0,0,1-6.47,1.15,18,18,0,0,1-6.56-1.15,14.52,14.52,0,0,1-5-3.23,14,14,0,0,1-3.2-5,17.8,17.8,0,0,1-1.12-6.43,17.81,17.81,0,0,1,1.12-6.44,14.07,14.07,0,0,1,3.2-5,14.52,14.52,0,0,1,5-3.23,18,18,0,0,1,6.56-1.15m0,24a6.48,6.48,0,0,0,5.2-2.26,8.85,8.85,0,0,0,1.93-5.95,8.65,8.65,0,0,0-1.93-5.87,6.52,6.52,0,0,0-5.2-2.23,6.68,6.68,0,0,0-5.29,2.23,8.57,8.57,0,0,0-2,5.87,8.68,8.68,0,0,0,2,5.95,6.66,6.66,0,0,0,5.26,2.26m25.61,7,5.43-9.12q1.63,2.89,3,5.13c.92,1.49,1.79,2.82,2.59,4H224.1L213.89,30.58l10.58-15.35h-9.85L209,24.78l-.67-1.15c-1.08-1.85-2.06-3.48-2.93-4.87s-1.64-2.57-2.32-3.53H192.92l10.7,15.47L193.35,45.32Z" style="fill:#414042"/></svg>